<svg width="95" height="46" viewBox="0 0 95 46" fill="none" xmlns="http://www.w3.org/2000/svg">
<path d="M34.9738 45.5271L34.2058 44.663C36.2964 42.8284 38.2164 40.695 39.9658 38.263C41.7151 35.831 43.4751 33.1644 45.2458 30.263C45.6724 29.5804 46.1098 28.919 46.5578 28.279C47.0058 27.639 47.4431 27.0417 47.8698 26.487C48.8938 25.1644 49.8324 24.1617 50.6858 23.479C51.5604 22.7964 52.3818 22.3377 53.1498 22.103C53.9391 21.8684 54.7178 21.751 55.4858 21.751C55.7844 21.751 56.0618 21.8257 56.3178 21.975C56.5951 22.103 56.7338 22.3484 56.7338 22.711C56.7338 23.3937 56.5418 24.055 56.1578 24.695C55.7951 25.3137 55.3151 25.8257 54.7178 26.231C54.1204 26.615 53.4698 26.807 52.7658 26.807C51.7204 26.807 50.8031 27.0844 50.0138 27.639C49.2458 28.1724 48.4778 28.9617 47.7098 30.007C46.9418 31.031 46.0458 32.279 45.0218 33.751C43.4431 36.0337 41.8644 38.1777 40.2858 40.183C38.7071 42.1884 36.9364 43.9697 34.9738 45.5271Z" fill="#9FE870"/>
<path d="M60.0075 9.88705C59.1115 8.96971 58.2262 8.18038 57.3515 7.51905V7.23105C57.5435 6.95371 57.8315 6.60171 58.2155 6.17505C58.5782 5.72705 58.9515 5.31105 59.3355 4.92705C59.6982 4.52171 59.9649 4.26571 60.1355 4.15905H60.4235C61.4048 4.77771 62.0662 5.30038 62.4075 5.72705C62.7488 6.13238 62.9195 6.51638 62.9195 6.87905C62.9195 7.64705 62.0342 8.64971 60.2635 9.88705H60.0075Z" fill="#9FE870"/>
<path d="M56.5365 26.895C56.1099 26.895 55.7045 26.8737 55.3205 26.831C54.9578 26.7884 54.6272 26.7457 54.3285 26.703C54.0299 26.6604 53.7418 26.6177 53.4645 26.575C53.2085 26.5324 52.9739 26.511 52.7605 26.511C52.0565 26.511 51.7045 26.1697 51.7045 25.487C51.7045 24.7617 51.8858 24.1004 52.2485 23.503C52.5898 22.8844 53.0485 22.3937 53.6245 22.031C54.2005 21.647 54.8085 21.455 55.4485 21.455C55.8325 21.455 56.2805 21.519 56.7925 21.647C57.9658 20.047 59.1712 18.5537 60.4085 17.167C61.6672 15.7804 62.9365 14.671 64.2165 13.839C65.5178 12.9857 66.8085 12.559 68.0885 12.559C68.8992 12.559 69.5072 12.7617 69.9125 13.167C70.3178 13.5724 70.5205 14.0524 70.5205 14.607C70.5205 15.3964 70.3072 16.2817 69.8805 17.263C69.4752 18.223 68.9099 19.2044 68.1845 20.207C67.4592 21.2097 66.6379 22.1484 65.7205 23.023C64.8245 23.8977 63.8858 24.623 62.9045 25.199C61.9232 25.775 60.8992 26.2017 59.8325 26.479C58.7658 26.7564 57.6672 26.895 56.5365 26.895ZM59.1605 21.967C60.4192 21.967 61.6672 21.7964 62.9045 21.455C64.1418 21.0924 65.2405 20.5804 66.2005 19.919C67.1605 19.2364 67.6405 18.5964 67.6405 17.999C67.6405 17.6364 67.4379 17.3164 67.0325 17.039C66.6485 16.7617 66.1152 16.623 65.4325 16.623C64.5792 16.623 63.7365 16.8364 62.9045 17.263C62.0725 17.6897 61.1659 18.4577 60.1845 19.567C59.7365 20.079 59.3525 20.527 59.0325 20.911C58.7125 21.295 58.4352 21.6257 58.2005 21.903C58.3498 21.9244 58.4992 21.9457 58.6485 21.967C58.8192 21.967 58.9898 21.967 59.1605 21.967Z" fill="#9FE870"/>
<path d="M80.8335 31.511C79.2549 31.511 78.0922 30.9137 77.3455 29.719C76.6202 28.503 76.2575 26.7217 76.2575 24.375C76.2575 22.6044 76.2895 20.8764 76.3535 19.191C76.4388 17.5057 76.5349 15.959 76.6415 14.551C76.7482 13.1217 76.8655 11.895 76.9935 10.871C77.1215 9.82571 77.2389 9.06838 77.3455 8.59905C77.6015 7.53238 77.9855 6.36971 78.4975 5.11105L79.1695 5.30305C78.9349 6.75371 78.7535 8.60971 78.6255 10.871C78.4975 13.1324 78.4335 15.7884 78.4335 18.839C78.4335 19.6497 78.4549 20.503 78.4975 21.399C78.5615 22.2737 78.7109 23.095 78.9455 23.863C79.2015 24.631 79.5962 25.2604 80.1295 25.751C80.6842 26.2204 81.4415 26.455 82.4015 26.455C83.3189 26.455 83.7775 27.063 83.7775 28.279C83.7775 29.0897 83.6175 29.7297 83.2975 30.199C82.9775 30.6684 82.5829 31.0097 82.1135 31.223C81.6655 31.415 81.2389 31.511 80.8335 31.511Z" fill="#9FE870"/>
<path d="M80.7918 31.511C79.8958 31.511 79.4478 30.903 79.4478 29.687C79.4478 29.0257 79.5544 28.503 79.7678 28.119C79.9598 27.7137 80.1838 27.4044 80.4398 27.191C80.6744 26.9777 80.8558 26.8497 80.9838 26.807C81.0051 26.5084 81.0904 26.0604 81.2398 25.463C81.4104 24.8657 81.6558 24.183 81.9758 23.415C82.2958 22.647 82.6798 21.879 83.1278 21.111C83.7678 20.0444 84.4184 19.287 85.0798 18.839C85.7411 18.3697 86.5304 18.135 87.4478 18.135C88.5998 18.135 89.9544 18.423 91.5118 18.999C92.2584 19.2764 92.8984 19.5004 93.4318 19.671C93.9651 19.8204 94.3704 19.9377 94.6478 20.023L94.7438 20.407C93.3358 22.583 91.9491 24.5137 90.5838 26.199C89.2184 27.863 87.7464 29.1644 86.1678 30.103C84.6104 31.0417 82.8184 31.511 80.7918 31.511ZM82.1358 26.455H82.3918C83.6504 26.455 84.8771 26.3164 86.0718 26.039C87.2664 25.7404 88.3544 25.303 89.3358 24.727C90.3384 24.1297 91.1384 23.4044 91.7358 22.551C90.7544 22.1884 89.8478 21.911 89.0158 21.719C88.2051 21.5057 87.4798 21.399 86.8398 21.399C85.8798 21.399 85.0798 21.655 84.4398 22.167C83.7998 22.679 83.2984 23.319 82.9358 24.087C82.5731 24.855 82.3064 25.6444 82.1358 26.455Z" fill="#9FE870"/>
<path d="M3.89597 28.8757C4.45947 28.5721 5.31701 28.7129 5.85322 29.1947C6.67371 29.932 6.76098 31.1971 6.05519 32.1223C4.96614 33.55 2.79816 33.7414 1.43843 32.5564C-0.159775 31.1635 -0.280307 29.0352 0.594433 27.4293C1.72406 25.3553 3.56219 24.4218 5.87655 24.4663C8.01317 24.5075 9.62478 25.5178 10.6874 27.3736C11.1105 28.1125 11.2866 28.9314 11.3698 29.7731C11.4297 30.3802 11.4705 30.991 11.6441 31.5808C12.2158 33.5223 13.5887 34.5831 15.5097 34.909C18.4822 35.4133 21.0401 34.5726 23.0793 32.3112C23.7699 31.5453 24.259 30.6596 24.4237 29.6258C24.6722 28.0658 24.1762 26.7505 23.0831 25.6375C22.3381 24.879 21.4206 24.3782 20.491 23.8956C19.3159 23.2854 18.1121 22.7268 17.0878 21.8605C14.8289 19.95 14.1354 17.2034 15.0419 14.6989C15.3825 13.7577 15.9739 12.9738 16.6436 12.2447C17.0098 11.846 17.3638 11.4386 17.5043 10.8993C17.5679 10.6551 17.826 10.6742 18.0021 10.5007C16.9995 10.6898 16.0417 10.8195 15.0254 10.6335C15.3499 10.4028 15.5747 10.14 15.7422 9.83028C15.9865 9.37897 15.9289 9.04491 15.5152 8.74811C15.3448 8.62582 15.3501 8.53404 15.4317 8.37163C15.6353 7.96657 15.8955 7.57958 15.937 7.11265C15.9608 6.84594 15.9419 6.57572 15.9509 6.3074C15.9699 5.73755 16.2421 5.30689 16.691 4.97259C16.7805 4.90596 16.8535 4.84909 16.9617 4.93764C17.7303 5.56642 18.5946 6.07085 19.324 6.75033C20.0265 7.40486 20.6493 8.11971 20.9891 9.03833C21.0955 9.32585 21.1234 9.61848 20.9975 9.93409C21.3847 9.90548 21.763 9.86905 22.1422 9.85096C24.4622 9.74018 26.6375 10.2624 28.5992 11.4973C31.9734 13.6214 33.0898 17.6788 31.3519 21.2936C31.2226 21.5624 31.0934 21.8315 30.8809 22.09C30.6008 21.6256 30.2976 21.2018 29.9445 20.8139C29.0776 19.8613 28.0042 19.1709 26.9586 18.4447C26.1726 17.8988 25.4611 17.2677 25.1221 16.3516C24.5172 14.7165 24.9552 13.2833 26.0916 12.0265C26.4549 11.6248 26.8931 11.3144 27.3934 11.0845C27.1796 10.9582 27.0114 10.9653 26.7322 11.0608C24.6695 11.7665 23.5638 13.9492 23.6521 15.8764C23.7098 17.134 24.1982 18.1949 25.0374 19.1156C25.8277 19.9826 26.7591 20.6999 27.5802 21.5336C28.877 22.8502 29.7794 24.3735 30.0467 26.2325C30.2663 27.7603 30.0197 29.2257 29.4362 30.6363C28.4723 32.9664 26.8441 34.7337 24.7064 36.0293C21.5756 37.9268 18.2195 38.4985 14.6516 37.5931C12.6951 37.0967 11.1306 36.0311 10.0667 34.2803C9.47915 33.3132 9.28107 32.245 9.19342 31.1402C9.12873 30.3248 9.07827 29.5 8.70065 28.7523C8.04763 27.4591 6.97781 26.744 5.54001 26.6824C4.1433 26.6226 2.9809 27.1397 2.22559 28.3706C1.69042 29.2428 1.73226 30.2322 2.28832 30.9638C2.72257 31.5351 3.4329 31.7613 4.11735 31.5461C4.69619 31.3641 5.05265 30.8913 5.05796 30.2985C5.06309 29.7225 4.68089 29.1743 4.14447 28.9769C4.06196 28.9467 3.9536 28.9718 3.89597 28.8757Z" fill="#9FE870"/>
<path d="M9.44595 17.989C9.13623 17.2878 9.08446 16.55 9.13595 15.8039C9.21771 14.6187 9.6309 13.5717 10.4683 12.7068C10.6028 12.5679 10.7253 12.5244 10.9258 12.5538C12.3085 12.7565 13.6455 12.5282 14.9555 12.0856C15.2196 11.9963 15.4826 11.9039 15.7468 11.8152C15.7621 11.8101 15.7843 11.8255 15.8091 11.8331C13.7954 14.0526 12.8098 16.5198 13.9606 19.5248C12.999 19.5026 12.0603 19.3803 11.1559 19.0771C8.37871 18.1461 6.43084 16.3668 5.55838 13.5178C5.29518 12.6584 5.25427 11.7683 5.26217 10.8739C5.27209 9.74856 5.1405 9.60618 4.02683 9.51356C2.6782 9.40141 1.45255 9.00038 0.469413 8.02241C0.338197 7.89192 0.210634 7.75085 0.113023 7.59488C-0.127454 7.21075 0.0249253 6.93156 0.483441 6.90609C0.829973 6.88686 1.16193 6.97368 1.48409 7.09053C1.81449 7.21033 2.14217 7.33845 2.46699 7.47276C3.35462 7.83977 4.23632 7.83843 5.11751 7.45071C5.25906 7.38843 5.40624 7.33421 5.55579 7.29564C6.16879 7.13754 6.62717 7.37874 6.81587 7.98095C7.00468 8.5834 7.18712 9.18699 7.48429 9.74732C8.06875 10.8494 8.83175 11.7797 9.98702 12.3295C10.0139 12.3423 10.0339 12.3697 10.0572 12.3905C8.32112 13.7382 8.11831 16.4919 9.44595 17.989Z" fill="#9FE870"/>
<path d="M16.4851 3.18352L17.3174 3.3259C17.4031 3.34056 17.4907 3.31485 17.5551 3.2564C17.8384 2.99919 18.6721 2.29553 19.3504 2.2592C19.4159 2.25569 19.4783 2.22993 19.5267 2.18565L19.8506 1.88941C19.9065 1.83838 19.9804 1.81187 20.056 1.81581L20.5963 1.84407C20.6418 1.84644 20.686 1.85974 20.7253 1.883C21.1755 2.15017 23.9045 3.92692 22.8079 7.14995C22.7941 7.19059 22.79 7.23393 22.7956 7.27649L22.817 7.43981C22.6846 7.3588 22.5647 7.25563 22.4437 7.14792L22.3375 7.05301C22.3021 7.02152 22.2671 6.9906 22.2335 6.9592C22.1665 6.89614 22.1028 6.8338 22.0489 6.76679C21.9943 6.69997 21.9436 6.62635 21.8948 6.54807L21.7443 6.30704C21.6427 6.14514 21.5383 5.98506 21.4326 5.82576C21.3792 5.74642 21.3264 5.66676 21.2717 5.58824C21.2445 5.54885 21.2179 5.50949 21.1899 5.46986C21.1619 5.43035 21.1332 5.39044 21.1031 5.3508C21.0433 5.27178 20.9751 5.19368 20.9004 5.12529C20.8263 5.05624 20.7461 4.99625 20.6639 4.94192C20.5813 4.88793 20.4965 4.83958 20.4099 4.79592C20.3234 4.75201 20.2357 4.71174 20.1462 4.67464C20.2186 4.739 20.2928 4.8005 20.3653 4.86267C20.4378 4.92489 20.5088 4.98748 20.5756 5.05262C20.6428 5.11741 20.706 5.18458 20.7625 5.25516L20.7834 5.28175C20.7904 5.29057 20.7967 5.29986 20.8036 5.30873C20.8171 5.32662 20.8302 5.34459 20.8427 5.36329C20.8681 5.40037 20.8916 5.4392 20.9155 5.47842C20.9392 5.51776 20.9623 5.55823 20.9854 5.59944L21.0563 5.72368C21.1033 5.80696 21.1522 5.8891 21.2006 5.97156C21.2983 6.13587 21.3973 6.2994 21.4992 6.4611C21.5504 6.54203 21.6003 6.62209 21.6554 6.70452C21.6832 6.7454 21.712 6.78649 21.7428 6.82715C21.7735 6.86774 21.8057 6.90832 21.8414 6.94679C21.9127 7.02434 21.9894 7.09249 22.0678 7.1534C22.1069 7.18402 22.1459 7.2136 22.1848 7.24209L22.3024 7.32639C22.3419 7.35463 22.3824 7.38207 22.4239 7.40893C22.4653 7.43584 22.5075 7.46229 22.5514 7.48649C22.595 7.51109 22.64 7.53414 22.6861 7.5549C22.7212 7.57055 22.7571 7.58466 22.7935 7.59736L22.7925 7.59974L22.4656 8.28898C22.3878 8.45294 22.1778 8.50206 22.0354 8.38959L20.6396 7.28733C20.6185 7.27066 20.5999 7.25108 20.5843 7.22914L19.4264 5.59755C19.4036 5.56544 19.3744 5.53845 19.3406 5.51831L16.293 3.70451C16.234 3.66937 16.1898 3.61392 16.1687 3.54854C16.1036 3.34665 16.276 3.14775 16.4851 3.18352ZM20.5634 3.24787C20.7104 3.31922 20.8527 3.39668 20.9888 3.48161C21.2609 3.65139 21.5095 3.84979 21.7201 4.08223L21.7593 4.12604L21.7973 4.17087C21.8102 4.18556 21.8221 4.20111 21.8345 4.21627C21.847 4.23143 21.8591 4.24677 21.8708 4.26247C21.9191 4.32419 21.964 4.38853 22.0069 4.45432C22.0287 4.48702 22.0487 4.52082 22.0694 4.55434C22.0796 4.57121 22.0889 4.58855 22.099 4.60553L22.1138 4.63115L22.1278 4.65725C22.1369 4.67473 22.1468 4.69189 22.1559 4.70949L22.1827 4.76253C22.1921 4.78003 22.2001 4.79818 22.2088 4.81607C22.2171 4.83411 22.2263 4.85182 22.2339 4.8702C22.2993 5.01552 22.3558 5.16662 22.4032 5.3227L22.4213 5.38131L22.4378 5.4405C22.4498 5.47991 22.4591 5.51993 22.4701 5.55992C22.4727 5.56993 22.4755 5.57994 22.478 5.59L22.4852 5.62023L22.5003 5.6809C22.5103 5.72146 22.5189 5.76235 22.5298 5.80335C22.5355 5.7616 22.5404 5.71961 22.544 5.6775C22.5463 5.63548 22.5501 5.59309 22.5503 5.55084C22.5512 5.50851 22.5515 5.46604 22.5499 5.42362C22.5495 5.40236 22.5485 5.38112 22.5475 5.35986L22.543 5.29614C22.5298 5.12601 22.4968 4.95646 22.4472 4.79064C22.3476 4.45913 22.1702 4.14633 21.9344 3.88757C21.6989 3.62828 21.4086 3.42307 21.0954 3.2813C20.9387 3.21044 20.7764 3.15407 20.6108 3.11441C20.5279 3.09476 20.4445 3.07872 20.3603 3.06784C20.2763 3.05697 20.1917 3.04982 20.1071 3.05246C20.2649 3.111 20.4163 3.17639 20.5634 3.24787Z" fill="#9FE870"/>
<path d="M6.115 1.62692L3.2975 0L0.479996 1.62692V4.88017L3.2975 6.50708L6.115 4.88017V1.62692ZM3.2975 4.42021C2.98808 4.42021 2.69133 4.29729 2.47254 4.0785C2.25375 3.85971 2.13083 3.56296 2.13083 3.25354C2.13083 2.94412 2.25375 2.64738 2.47254 2.42858C2.69133 2.20979 2.98808 2.08687 3.2975 2.08687C3.60692 2.08687 3.90366 2.20979 4.12245 2.42858C4.34125 2.64738 4.46416 2.94412 4.46416 3.25354C4.46416 3.56296 4.34125 3.85971 4.12245 4.0785C3.90366 4.29729 3.60692 4.42021 3.2975 4.42021Z" fill="#9FE870"/>
</svg>
